# Blender 4.3.2
# www.blender.org
mtllib stanford_bunny_low_poly.mtl
o stanford_bunny_high_poly
v -1.435443 1.906031 -0.445840
v 1.429027 2.928621 0.766768
v -1.909028 2.459574 1.323301
v -0.045212 4.467960 -0.101115
v -1.991385 2.712942 1.293364
v 0.776431 3.035413 0.150152
v -0.438632 4.309660 -0.179419
v -0.314956 0.399435 1.245405
v 0.827266 0.344922 1.455182
v -1.523642 2.441596 1.508906
v -2.036817 2.637471 0.732478
v 0.016941 2.850366 0.111457
v 0.173145 0.447180 1.605283
v 0.844037 2.432635 1.346590
v -1.225427 3.548650 1.321491
v -0.464244 2.976042 0.454355
v 0.158152 1.766112 1.625242
v 1.130759 2.030256 1.554375
v 0.912692 0.574316 1.682161
v 1.970045 2.515810 0.778792
v -1.171274 3.750278 -0.011916
v 0.313866 0.499235 1.483980
v -1.013403 3.411156 -0.184819
v 1.847324 2.662573 -0.035630
v 0.058677 0.690358 1.105943
v 2.219428 0.445775 1.018126
v -0.664119 0.541503 1.084134
v -1.504392 2.949719 1.679309
v 2.425606 0.853119 0.972502
v 0.625058 2.789486 1.089409
v 1.437867 2.727809 1.054312
v 0.857496 0.917758 1.769112
v -1.046172 4.164292 -1.454094
v 2.245300 1.026782 0.829220
v 2.175951 1.729054 -0.349213
v 1.205379 1.222409 1.732382
v 2.206489 2.204217 0.168621
v -0.770216 2.526513 -0.515338
v 0.769892 1.268407 1.828941
v -1.733213 1.907973 -0.129771
v -1.894712 2.067702 0.442540
v -0.467464 1.280103 1.336737
v -1.092159 1.385937 1.343278
v -1.430658 3.818653 0.793000
v -0.240537 2.708411 0.915395
v -1.205531 0.046840 1.172575
v -1.702484 2.370341 0.065871
v -0.367223 1.687790 1.338461
v 0.202699 1.491379 1.765771
v -0.679201 1.610526 1.430634
v -0.073085 1.529203 1.307730
v -1.906784 3.568967 0.868022
v 0.358509 2.785254 -0.199247
v 1.221697 1.684299 1.736473
v 0.050056 2.851034 0.507510
v 0.926327 2.109824 1.370349
v -1.183972 4.612856 -1.854621
v -1.943870 3.165603 0.514554
v 0.507776 1.810027 1.768802
v -1.302343 1.205382 1.120917
v 0.759622 2.404841 -0.661513
v 0.640092 4.262000 -0.861483
v -0.927177 1.927472 1.405989
v -0.653921 1.938560 1.370750
v -1.394469 3.788437 0.055775
v -0.363766 2.113518 1.287990
v 0.095968 1.952721 1.405002
v -0.857207 3.709771 1.021809
v -1.406658 1.812807 1.282452
v -1.851082 3.120751 0.105119
v -0.847927 3.796841 0.360337
v -0.670807 3.546978 0.394980
v 0.170731 2.304228 1.281666
v -0.797824 2.495157 1.092690
v -1.980880 2.584020 0.284489
v 1.567044 2.128920 1.393099
v -1.209544 3.786225 -1.718298
v -0.488405 1.847233 -0.696275
v -0.802065 1.956675 -0.700009
v 0.265048 4.372113 -0.688215
v -0.892132 3.537339 -0.038329
v 1.732993 2.400096 1.141994
v 0.711920 0.039912 1.493457
v 1.388843 0.407495 1.374730
v 1.952738 0.504583 1.006536
v 0.603499 4.259807 -0.642079
v -0.976748 2.778085 1.339160
v -0.507733 2.748012 0.864481
v -0.494735 3.787600 0.245475
v -1.034773 3.218326 1.117845
v 1.314497 0.684744 1.575009
v 2.326431 1.872367 0.173046
v 1.612112 0.745729 1.445638
v -1.327992 2.273767 1.170697
v 0.349568 4.763250 -0.583280
v -1.858604 3.218973 0.821828
v -0.179967 3.665651 -0.029832
v 2.093308 1.048004 1.131987
v -1.543974 4.461559 -1.523805
v -0.788414 3.293603 0.924399
v 0.404962 3.957000 -0.212350
v -0.194589 4.058048 -0.097831
v 1.644515 1.023319 1.414430
v -1.167639 2.620644 1.646806
v 1.483317 1.407258 1.632243
v -1.550178 3.988764 -0.828308
v 2.000942 1.803986 1.240162
v 1.683071 1.529668 1.515241
v -1.276413 4.381970 -1.315640
v -1.000280 4.151973 -1.918772
v 2.191242 0.207132 0.005098
v 1.644571 0.419411 -0.618707
v 1.049653 1.875576 -1.016196
v -1.207637 2.582324 -0.307803
v -0.999195 3.888177 -0.706906
v -1.364155 4.134540 -1.358300
v 2.751907 0.686734 0.155568
v -1.084858 3.557170 -0.805346
v -0.703422 3.388614 0.035070
v 0.289149 2.527719 -0.509112
v -1.199971 -0.007962 -0.217157
v 0.638213 2.073319 -0.757350
v -1.559664 1.197663 0.739555
v 1.221005 2.717057 -0.424254
v 1.602764 0.719364 -0.814240
v 2.756673 1.104384 0.664363
v 2.116369 0.996057 -0.352316
v 1.775135 1.794649 -0.663649
v -1.307921 3.322525 -0.244804
v 0.075479 0.069518 1.721800
v -1.762569 2.370910 0.694447
v 1.854978 1.277822 -0.654281
v -0.269576 2.797819 -0.279485
v 2.247754 1.400027 -0.148842
v -0.660442 0.697697 0.540274
v 2.286730 1.782126 0.742345
v -0.409985 0.329984 -0.668656
v -1.493579 3.627413 -0.166344
v -0.665139 0.924213 1.060100
v -1.904434 3.634592 0.386351
v -0.005100 2.665618 0.894511
v 0.465012 4.740001 -0.819004
v 0.712823 2.983538 0.794706
v 2.371790 1.265576 0.455072
v -1.247656 4.192162 -0.723757
v 1.213389 3.056054 0.292843
v 0.809245 2.902632 -0.220948
v -1.070473 0.032860 0.616754
v -1.400871 0.079108 0.177860
v -0.847820 0.334023 1.414855
v -1.865399 1.853984 0.789296
v -1.228254 0.347844 0.191628
v -0.142315 0.263146 1.533471
v 0.466151 2.094621 1.381085
v -1.120444 0.340356 1.018499
v -1.701951 3.040192 1.586844
v -1.738900 1.507262 0.840727
v -1.847078 3.249858 1.265937
v -0.678932 0.403459 0.555697
v -1.397462 3.609677 -1.114480
v -0.822415 0.697291 0.325104
v 0.386797 0.963627 1.658981
v -0.789517 0.740310 0.616287
v -0.339550 0.972871 1.314166
v -0.294301 4.046974 -0.424247
v -0.013939 2.268932 -0.676146
v -0.467496 0.035874 -0.823387
v -0.984408 3.794276 0.098000
v -0.905516 0.479749 0.208322
v 0.041334 0.502281 -0.750002
v -0.493691 0.410651 -0.325683
v 1.664950 2.592251 -0.301199
v -0.097284 0.614176 -0.307925
v 1.526618 2.098542 -0.688994
v -0.849082 0.825099 -0.152922
v -0.040306 1.031479 -0.824849
v -1.572255 1.232139 -0.072210
v -0.224404 1.444238 -0.640642
v -1.841779 1.627624 0.235642
v -1.704563 1.562686 -0.118557
v -0.104568 1.755529 -0.779972
v 1.067825 2.509047 -0.622730
v 2.435614 0.673588 -0.207349
v 2.336722 1.128818 0.084184
v 2.682215 1.125575 0.102948
v -0.117855 0.272422 -0.940386
v 1.200699 2.082308 -0.675874
v -0.863765 0.410913 -0.165503
v 0.201029 1.846756 -1.069440
v 1.343236 0.036354 -0.672265
v -0.636176 2.958448 -0.107285
v -0.162457 0.000641 -0.958767
v 0.330039 0.341546 -0.870181
v -1.067278 2.094833 -0.553091
v -1.611653 3.410326 -0.045535
v 1.297977 0.308485 -0.745254
v 1.945155 0.533240 -0.235892
v 0.787127 0.462536 -0.960482
v 1.056275 0.655472 -0.958877
v -1.687833 2.835270 -0.181609
v 0.278516 1.053139 -1.197518
v 0.747081 0.978573 -1.095813
v -0.526006 1.059175 -0.478643
v 1.208266 1.213194 -1.021330
v 1.487232 1.014156 -0.903053
v 0.704841 1.489198 -1.186726
v -1.040190 1.195763 -0.515721
v -0.068203 1.461488 -1.072172
v -0.575141 1.391828 -0.606741
v 0.379978 1.610066 -1.231503
v -1.290709 1.497784 -0.540236
v -0.154086 0.003874 -0.676353
v 1.250924 0.028440 -0.415042
v -0.703679 -0.009458 -0.390361
v 1.098712 0.172823 -0.367026
v 1.452830 0.041704 0.160851
v -0.054540 0.150686 -0.554344
v 1.525445 0.022484 -0.032680
v -0.371303 -0.009892 -0.087678
v 0.724678 0.139215 0.419606
v 1.151080 0.064561 0.130324
v -0.264924 0.074278 -0.214012
v 1.930044 0.047524 0.403651
v -0.202685 0.135139 -0.119654
v 1.534477 0.042768 0.249845
v -0.305074 0.004332 0.041333
v 2.676975 0.483789 0.651783
v -0.122643 0.138691 -0.014953
v 0.971672 0.022981 0.609602
v 1.135479 0.038334 0.546539
v 1.560315 0.052464 0.479749
v 1.478670 0.029488 0.691228
v -0.303813 0.038160 0.361115
v -0.223938 -0.002229 0.147475
v -0.046784 0.135053 0.086658
v -0.145001 -0.012463 0.246324
v -0.772618 -0.001293 0.458394
v 0.025093 0.136769 0.188459
v -0.583886 0.058434 0.257584
v -0.068266 0.013746 0.340736
v 0.080380 0.125501 0.491939
v 1.244647 0.019843 0.647556
v -0.022540 0.051604 0.528362
v 1.775996 0.118069 0.800508
v -0.190908 0.061238 0.641364
v 1.160351 0.180321 1.001254
v 1.435366 0.052278 1.336931
v 1.025851 0.167554 1.064082
v 1.111779 0.011370 1.165695
v -0.436879 0.016468 0.841762
v -0.681690 0.009848 0.815026
v -0.177309 0.028813 1.113555
v -0.053945 0.123714 1.029473
v 0.054093 0.160986 1.166765
v 0.473416 0.174443 1.231478
v 0.670314 0.173199 1.155512
v 0.846649 0.176571 1.114274
v 0.912914 0.026026 1.231952
v -1.266691 0.841786 0.472314
v -0.314235 0.035325 1.309504
v 0.770881 0.040380 1.269958
v 0.597743 0.068467 1.322458
v -0.080326 0.027044 1.249363
v -0.884902 0.783157 0.636906
v 0.385553 0.027476 1.387374
v -0.766459 0.042357 1.475870
v 0.006626 0.033570 1.332028
v -1.330956 3.495806 -0.649358
v 0.373563 4.002737 -0.492728
vn -0.8856 0.4566 -0.0851
vn -0.2214 0.9736 0.0558
vn -0.2145 0.9751 0.0562
vn -0.2193 0.9742 0.0526
vn -0.3550 0.8259 0.4381
vn 0.8571 0.4062 0.3167
vn -0.0709 0.9948 0.0731
vn 0.1982 0.8726 0.4463
vn 0.2013 0.8744 0.4415
vn 0.3553 -0.9330 0.0576
vn -0.9963 0.0856 0.0068
vn -0.7002 -0.7109 -0.0663
vn -0.1297 0.5492 0.8256
vn -0.1314 0.5572 0.8199
vn -0.1318 0.5529 0.8227
vn -0.4780 0.7986 -0.3657
vn 0.0242 -0.9992 -0.0312
vn 0.0238 -0.9992 -0.0317
vn -0.2073 -0.3040 0.9299
vn 0.7525 0.0407 -0.6573
vn 0.6341 -0.5687 -0.5239
vn 0.6294 -0.5702 -0.5279
vn 0.0807 0.8211 0.5650
vn 0.0850 0.8204 0.5655
vn 0.0891 0.8207 0.5643
vn -0.9837 0.1167 -0.1368
vn -0.3007 0.2729 0.9138
vn 0.1810 -0.7195 0.6705
vn 0.1681 -0.7253 0.6676
vn 0.1762 -0.7247 0.6661
vn 0.9821 0.1410 -0.1249
vn -0.2405 -0.0390 0.9699
vn 0.2705 -0.1952 0.9427
vn 0.6648 -0.6742 -0.3215
vn 0.0805 0.6148 0.7845
vn -0.0796 0.4955 0.8649
vn 0.2787 0.2728 0.9208
vn -0.1586 -0.6640 0.7307
vn -0.6782 0.3593 -0.6411
vn -0.6807 0.3569 -0.6397
vn -0.6811 0.3618 -0.6365
vn -0.3583 -0.1337 -0.9240
vn -0.3535 -0.1295 -0.9264
vn -0.3544 -0.1396 -0.9246
vn -0.1750 -0.0605 0.9827
vn -0.9420 -0.1680 0.2906
vn 0.2174 0.4302 0.8762
vn -0.4665 -0.7297 -0.4998
vn 0.0890 0.4656 0.8805
vn 0.0947 0.4644 0.8806
vn 0.0929 0.4685 0.8785
vn 0.1429 0.6240 0.7683
vn 0.3684 0.2536 0.8944
vn -0.1509 0.8353 0.5288
vn 0.0113 -0.9997 -0.0208
vn -0.0403 -0.2969 0.9540
vn 0.1250 0.4877 0.8640
vn 0.1226 0.4866 0.8650
vn 0.1271 0.4859 0.8647
vn 0.9510 0.0496 -0.3053
vn 0.1193 0.1694 0.9783
vn 0.0769 0.8248 0.5602
vn -0.0124 0.4391 0.8984
vn -0.0124 0.4443 0.8958
vn -0.0178 0.4462 0.8948
vn 0.3045 0.2649 0.9149
vn 0.2034 -0.1151 0.9723
vn 0.2442 0.1559 0.9571
vn 0.2148 -0.0162 0.9765
vn 0.3002 -0.0778 0.9507
vn -0.1314 -0.4188 0.8985
vn -0.1380 -0.4223 0.8959
vn -0.1366 -0.4204 0.8970
vn 0.0700 0.5175 0.8528
vn 0.0752 0.5174 0.8524
vn 0.0726 0.5186 0.8520
vn -0.0350 0.6914 0.7216
vn -0.4575 -0.1252 0.8803
vn 0.2086 0.1135 0.9714
vn 0.4098 -0.0913 0.9076
vn 0.0898 -0.0263 0.9956
vn -0.2064 0.1168 0.9715
vn -0.1862 0.5489 0.8149
vn -0.1156 0.3508 0.9293
vn -0.1142 0.3489 0.9302
vn -0.1140 0.3504 0.9296
vn 0.0945 -0.0337 0.9950
vn -0.0184 -0.2194 0.9755
vn -0.0155 -0.2179 0.9758
vn -0.0156 -0.2148 0.9765
vn 0.3635 -0.1579 0.9181
vn 0.3605 -0.1683 0.9174
vn 0.3635 -0.1635 0.9171
vn -0.8583 -0.5113 0.0442
vn 0.0700 0.1435 0.9872
vn 0.0676 0.1410 0.9877
vn 0.7332 0.6558 0.1798
vn 0.7301 0.6602 0.1762
vn 0.7258 0.6650 0.1761
vn -0.6283 0.5781 -0.5206
vn 0.1931 0.7595 0.6212
vn 0.8852 0.3161 -0.3412
vn 0.8853 0.3154 -0.3416
vn 0.8852 0.3136 -0.3435
vn 0.5328 -0.8237 -0.1940
vn 0.2269 0.1289 0.9654
vn -0.0713 0.3437 0.9364
vn -0.3414 0.6047 0.7195
vn -0.9924 -0.1231 0.0080
vn -0.2901 0.8785 0.3796
vn -0.2906 0.8789 0.3784
vn -0.2903 0.8779 0.3807
vn -0.2612 0.4384 0.8600
vn -0.0148 0.1189 0.9928
vn -0.0165 0.1220 0.9924
vn -0.0168 0.1197 0.9927
vn 0.0832 0.9712 0.2233
vn 0.1444 -0.1476 0.9784
vn -0.1409 0.2551 0.9566
vn -0.1773 0.5015 0.8468
vn 0.2579 0.7427 0.6179
vn -0.3577 -0.0697 0.9312
vn 0.0207 0.0786 0.9967
vn -0.2691 -0.3003 0.9151
vn -0.2706 -0.3040 0.9135
vn -0.2649 -0.3033 0.9153
vn -0.2444 -0.2747 0.9300
vn -0.2426 -0.2218 0.9444
vn -0.0778 0.7997 0.5953
vn 0.4740 -0.8210 0.3183
vn 0.4005 0.3252 0.8566
vn 0.8621 0.2146 0.4590
vn 0.7793 -0.6015 0.1757
vn -0.9397 -0.3288 0.0944
vn 0.6719 0.4014 0.6224
vn 0.3510 -0.0207 0.9361
vn 0.3879 0.0581 0.9198
vn 0.3255 -0.4957 0.8052
vn 0.6517 -0.0883 0.7533
vn 0.4645 0.4459 0.7651
vn 0.2621 0.2671 0.9273
vn 0.2512 0.2254 0.9413
vn 0.2494 0.2318 0.9402
vn 0.2455 0.2228 0.9434
vn 0.5839 -0.2011 0.7865
vn 0.5830 -0.2037 0.7865
vn 0.4686 -0.4737 0.7456
vn 0.6912 0.2826 0.6651
vn 0.5331 -0.4956 0.6857
vn 0.6302 -0.0767 0.7727
vn 0.9870 -0.1287 0.0964
vn 0.5310 0.0332 0.8467
vn 0.5487 -0.0171 0.8358
vn 0.5255 0.1679 0.8341
vn 0.5264 0.1674 0.8336
vn 0.5261 0.1680 0.8337
vn 0.6958 -0.1737 0.6969
vn 0.6959 -0.1682 0.6982
vn 0.6918 -0.1693 0.7020
vn 0.8184 -0.3015 0.4892
vn 0.8233 -0.2892 0.4884
vn 0.8199 -0.2949 0.4907
vn 0.4808 -0.2712 0.8338
vn 0.6199 -0.2297 0.7503
vn 0.8443 0.3820 0.3758
vn 0.8379 -0.3190 0.4430
vn 0.8413 -0.3182 0.4370
vn 0.8386 -0.3128 0.4460
vn 0.2446 0.7358 0.6315
vn 0.4906 0.2642 0.8304
vn 0.1334 0.0736 0.9883
vn 0.7742 -0.5808 -0.2515
vn 0.7744 -0.5786 -0.2559
vn 0.7714 -0.5827 -0.2557
vn 0.8674 0.0349 0.4964
vn 0.8670 0.0330 0.4971
vn 0.8684 0.0351 0.4946
vn 0.6665 -0.0252 0.7451
vn 0.5293 -0.1989 0.8248
vn 0.5294 -0.2042 0.8234
vn 0.5331 -0.2070 0.8203
vn 0.6515 -0.3266 0.6848
vn 0.9293 0.3592 0.0855
vn 0.9308 0.3561 0.0817
vn 0.9297 0.3591 0.0823
vn 0.4320 -0.4491 0.7821
vn -0.9466 0.2940 0.1322
vn -0.9477 0.2925 0.1279
vn -0.9475 0.2917 0.1309
vn 0.1873 -0.0153 -0.9822
vn 0.9243 0.3114 -0.2208
vn 0.9233 0.3146 -0.2202
vn 0.9253 0.3105 -0.2178
vn 0.3373 -0.0094 0.9413
vn 0.2992 0.3359 0.8931
vn 0.2468 0.6446 0.7236
vn 0.6559 -0.0110 0.7548
vn 0.8789 0.2009 0.4327
vn 0.8802 0.2087 0.4262
vn 0.8806 0.2038 0.4278
vn 0.7195 -0.1063 0.6863
vn 0.6672 -0.7192 -0.1938
vn 0.6672 -0.7193 -0.1934
vn 0.7060 0.4662 0.5331
vn 0.9577 0.0351 -0.2856
vn -0.0293 -0.3630 -0.9313
vn 0.8224 -0.2958 0.4860
vn 0.5435 0.3669 0.7550
vn 0.5419 0.3680 0.7556
vn 0.5411 0.3667 0.7568
vn 0.5459 -0.1281 0.8280
vn 0.5409 -0.1333 0.8305
vn 0.5423 -0.1405 0.8284
vn 0.3474 -0.4861 0.8019
vn 0.3894 -0.9011 -0.1906
vn -0.9380 -0.3281 0.1120
vn 0.9320 0.3242 0.1622
vn 0.9316 0.3271 0.1586
vn 0.9299 0.3310 0.1602
vn -0.3869 0.8721 -0.2996
vn 0.6234 0.0822 -0.7775
vn -0.9637 0.2669 0.0066
vn -0.9658 0.2594 -0.0003
vn -0.9656 0.2599 0.0070
vn 0.7222 -0.4077 -0.5588
vn 0.0252 0.6273 -0.7784
vn 0.9662 -0.2028 -0.1590
vn 0.7813 0.0589 -0.6214
vn 0.7797 -0.5805 -0.2347
vn -0.8430 -0.0747 -0.5327
vn 0.9259 0.2410 -0.2910
vn -0.9599 0.1538 -0.2344
vn -0.9285 0.1902 -0.3190
vn -0.9258 0.2001 -0.3207
vn -0.9296 0.1928 -0.3142
vn 0.7974 -0.1773 -0.5768
vn 0.9680 -0.2094 -0.1382
vn 0.7346 -0.5487 0.3992
vn 0.7964 -0.2485 -0.5514
vn 0.9944 0.0404 0.0971
vn 0.7921 0.4258 -0.4374
vn -0.9894 -0.1409 0.0355
vn -0.9895 -0.1410 0.0328
vn -0.9891 -0.1424 0.0375
vn -0.8083 0.5376 -0.2402
vn -0.8058 0.5405 -0.2418
vn -0.8067 0.5405 -0.2389
vn 0.0087 -0.9998 -0.0158
vn 0.6972 -0.1121 -0.7081
vn 0.8240 0.3323 0.4589
vn 0.8240 0.3329 0.4584
vn 0.8620 -0.3979 -0.3141
vn -0.5505 0.6648 0.5050
vn 0.9606 0.0979 0.2602
vn 0.9097 0.3849 0.1559
vn 0.3054 -0.2099 0.9288
vn 0.9333 0.3389 0.1188
vn 0.9896 0.1145 0.0872
vn 0.9899 0.1131 0.0857
vn 0.9897 0.1154 0.0853
vn 0.8625 0.3525 0.3632
vn 0.8664 0.3459 0.3601
vn 0.8648 0.3503 0.3598
vn 0.1034 0.9713 -0.2140
vn 0.1049 0.9726 -0.2076
vn 0.0995 0.9723 -0.2116
vn -0.2829 0.8724 0.3986
vn -0.8302 -0.5574 -0.0108
vn 0.6983 0.4104 0.5865
vn -0.3278 0.7837 0.5277
vn 0.7298 0.6132 0.3024
vn 0.7299 0.6135 0.3015
vn 0.3944 0.9188 -0.0176
vn 0.0505 0.8340 0.5494
vn 0.9292 -0.0506 0.3660
vn -0.3206 0.9456 -0.0545
vn -0.3191 0.9464 -0.0495
vn 0.9935 0.0293 -0.1096
vn 0.9949 0.0274 -0.0970
vn 0.9943 0.0261 -0.1036
vn -0.4167 0.8416 -0.3437
vn -0.1455 -0.7293 -0.6685
vn 0.0474 0.9518 0.3029
vn -0.0147 0.8881 0.4594
vn 0.1707 0.8859 0.4314
vn 0.0361 0.8718 0.4885
vn 0.9170 0.2791 0.2848
vn 0.9166 0.2824 0.2830
vn 0.9166 0.2856 0.2798
vn 0.2885 0.8276 0.4814
vn 0.2865 0.8273 0.4832
vn 0.2878 0.8272 0.4826
vn 0.1342 0.9822 0.1312
vn -0.4464 0.8869 0.1187
vn 0.0064 0.9992 -0.0401
vn 0.0082 0.9992 -0.0399
vn 0.0073 0.9991 -0.0406
vn 0.2329 0.9722 -0.0241
vn 0.2382 0.9710 -0.0216
vn 0.2386 0.9707 -0.0267
vn 0.7451 0.5549 0.3700
vn 0.7460 0.5562 0.3662
vn 0.7468 0.5532 0.3691
vn 0.7909 0.6118 -0.0126
vn 0.7900 0.6131 -0.0078
vn 0.7889 0.6145 -0.0081
vn 0.1558 -0.2194 -0.9631
vn 0.8068 0.5842 0.0882
vn 0.5383 0.6362 0.5527
vn 0.5416 0.6317 0.5547
vn 0.5383 0.6345 0.5546
vn 0.6051 0.7945 0.0520
vn 0.6091 0.7912 0.0545
vn 0.6086 0.7921 0.0475
vn -0.0203 0.9093 0.4157
vn 0.5269 0.7044 0.4757
vn 0.7559 0.6281 0.1846
vn 0.1916 0.9774 -0.0893
vn -0.9613 0.0137 -0.2751
vn -0.2376 0.9712 0.0182
vn -0.4012 0.8900 0.2166
vn 0.5202 0.8540 -0.0064
vn 0.5239 0.8518 -0.0093
vn 0.5245 0.8513 -0.0106
vn 0.0821 0.8209 0.5651
vn 0.0879 0.8182 0.5681
vn 0.0866 0.8180 0.5686
vn -0.0291 0.9206 0.3894
vn -0.4205 0.8552 0.3029
vn 0.4559 -0.8845 -0.0990
vn -0.8612 0.2410 0.4474
vn -0.3883 0.3672 0.8452
vn -0.3924 0.3676 0.8431
vn -0.3948 0.3638 0.8436
vn -0.6151 0.0482 0.7869
vn -0.6189 0.0524 0.7837
vn -0.6189 0.0476 0.7840
vn -0.8427 -0.0689 0.5340
vn -0.5682 0.0136 0.8228
vn -0.5586 -0.3014 0.7727
vn -0.5601 -0.3060 0.7698
vn -0.5596 -0.3008 0.7722
vn -0.3629 0.7387 0.5679
vn -0.3635 0.7389 0.5674
vn -0.3643 0.7385 0.5673
vn -0.3991 0.3658 0.8408
vn -0.4032 0.3634 0.8399
vn -0.4039 0.3594 0.8412
vn -0.7074 -0.3718 0.6011
vn -0.7080 -0.3688 0.6023
vn -0.7100 -0.3665 0.6014
vn -0.8337 0.0941 0.5442
vn -0.5106 -0.0130 -0.8597
vn -0.9643 0.0145 0.2644
vn -0.9643 0.0140 0.2644
vn -0.9633 0.0155 0.2681
vn -0.8388 -0.2483 0.4845
vn -0.5225 0.7133 0.4671
vn 0.0376 0.9018 0.4306
vn -0.2291 0.7098 0.6661
vn -0.3927 0.6873 0.6110
vn -0.3890 0.6857 0.6152
vn -0.3838 0.6855 0.6187
vn 0.3429 0.1635 0.9250
vn 0.3403 0.1582 0.9269
vn 0.3480 0.1609 0.9236
vn 0.1195 0.7027 0.7014
vn 0.1207 0.7041 0.6997
vn -0.0197 -0.3746 -0.9270
vn -0.6913 0.2795 0.6664
vn -0.5038 -0.2574 0.8246
vn -0.4302 -0.2414 0.8699
vn -0.7964 0.0815 0.5993
vn 0.9102 -0.3868 0.1479
vn -0.6384 -0.1176 0.7607
vn -0.6397 -0.1201 0.7592
vn -0.6359 -0.1181 0.7627
vn -0.3456 0.7025 0.6221
vn -0.3470 0.7056 0.6179
vn -0.3473 0.7019 0.6218
vn -0.7220 0.4739 0.5042
vn -0.7025 0.4218 0.5733
vn -0.3319 0.7431 0.5811
vn -0.4091 0.7960 0.4461
vn -0.2892 -0.8530 0.4345
vn -0.1567 0.2223 -0.9623
vn -0.8438 0.1296 0.5208
vn -0.8449 0.1286 0.5193
vn -0.8438 0.1285 0.5210
vn -0.3968 0.0419 -0.9169
vn -0.3194 0.7008 0.6378
vn -0.6516 -0.2942 0.6992
vn -0.6528 -0.2974 0.6967
vn -0.6510 -0.3012 0.6968
vn -0.6828 0.2673 0.6799
vn -0.6881 0.2620 0.6766
vn -0.6860 0.2611 0.6792
vn -0.8141 0.2486 0.5248
vn -0.8143 0.2410 0.5281
vn -0.8130 0.2455 0.5280
vn -0.7288 -0.1674 0.6640
vn -0.8349 0.0238 0.5498
vn -0.7136 0.2494 -0.6546
vn -0.4052 -0.5803 -0.7064
vn -0.9291 -0.0260 -0.3688
vn -0.9296 -0.0382 -0.3667
vn -0.9316 -0.0318 -0.3620
vn -0.8984 0.3668 0.2414
vn -0.8994 0.3683 0.2353
vn -0.9558 -0.2189 -0.1961
vn -0.9548 -0.2198 -0.2002
vn -0.9555 -0.2216 -0.1946
vn -0.8254 0.5567 -0.0941
vn -0.6968 -0.5934 -0.4028
vn -0.7007 -0.5850 -0.4084
vn -0.6976 -0.5896 -0.4070
vn -0.1697 0.7429 -0.6476
vn -0.2520 0.9039 -0.3457
vn -0.6864 -0.3955 -0.6102
vn -0.6755 0.4760 -0.5631
vn -0.3656 0.9030 -0.2256
vn -0.7347 -0.2025 -0.6474
vn -0.7381 -0.2102 -0.6411
vn -0.7379 -0.2048 -0.6431
vn -0.4863 -0.7838 -0.3863
vn -0.9795 0.1943 0.0532
vn -0.9063 -0.2533 -0.3382
vn -0.9221 0.2093 -0.3254
vn -0.6431 0.3024 -0.7035
vn -0.9504 -0.1823 -0.2519
vn -0.0673 0.6650 -0.7438
vn -0.9110 -0.2688 -0.3127
vn -0.9116 -0.2651 -0.3141
vn -0.9118 -0.2674 -0.3117
vn 0.3256 -0.9113 -0.2519
vn -0.9373 0.2660 0.2254
vn -0.8958 0.3312 -0.2965
vn 0.0404 0.9859 -0.1622
vn -0.7177 -0.0950 -0.6898
vn -0.5984 -0.8009 0.0208
vn -0.7319 -0.6787 -0.0615
vn -0.8609 -0.4836 -0.1581
vn -0.2717 -0.3041 -0.9131
vn -0.8977 0.4025 0.1792
vn 0.1939 0.8877 -0.4176
vn -0.9479 0.2292 0.2214
vn -0.7256 -0.0824 -0.6831
vn -0.0675 0.6650 -0.7438
vn 0.1303 -0.9776 0.1655
vn 0.6888 0.5297 -0.4949
vn 0.6886 0.5298 -0.4951
vn -0.9485 -0.2946 0.1165
vn -0.6587 0.3260 -0.6781
vn -0.6548 0.3310 -0.6794
vn -0.6500 0.3318 -0.6837
vn -0.0801 0.8614 -0.5016
vn -0.7625 -0.3195 -0.5626
vn -0.3874 0.9140 -0.1209
vn -0.6620 0.4557 -0.5951
vn -0.5494 0.4706 -0.6904
vn -0.8819 -0.3879 -0.2678
vn -0.8804 -0.3902 -0.2695
vn -0.8790 -0.3932 -0.2696
vn -0.9342 -0.0887 -0.3456
vn -0.5743 0.7650 0.2913
vn -0.9923 0.0388 -0.1180
vn -0.7223 -0.3071 -0.6197
vn -0.8540 0.0330 -0.5191
vn -0.8560 0.0365 -0.5157
vn -0.8518 0.0360 -0.5226
vn 0.5607 0.3385 -0.7557
vn -0.0197 -0.9195 -0.3927
vn -0.0625 0.6273 -0.7763
vn -0.0554 0.6275 -0.7766
vn -0.0667 0.6227 -0.7796
vn 0.7658 0.2506 -0.5922
vn 0.8992 -0.0754 -0.4310
vn 0.8997 -0.0766 -0.4297
vn 0.3583 0.4928 -0.7930
vn 0.0131 0.7995 -0.6005
vn 0.0064 0.8017 -0.5977
vn 0.0187 0.8027 -0.5960
vn 0.0074 -0.9992 0.0384
vn 0.0070 -0.9992 0.0388
vn -0.3384 0.9172 -0.2104
vn 0.3325 0.5324 -0.7784
vn 0.3443 0.5512 -0.7600
vn 0.3488 0.5510 -0.7582
vn 0.3470 0.5492 -0.7603
vn 0.0313 0.5807 -0.8135
vn -0.1211 -0.5162 -0.8478
vn -0.3813 0.7315 -0.5652
vn -0.3812 0.7319 -0.5649
vn -0.3808 0.7320 -0.5649
vn -0.1190 -0.5856 0.8018
vn -0.1184 -0.5853 0.8021
vn 0.0441 0.5048 -0.8621
vn 0.0505 0.5464 -0.8360
vn 0.0241 0.9378 -0.3463
vn 0.0315 0.9367 -0.3486
vn 0.0277 0.9370 -0.3481
vn -0.1971 0.8933 -0.4039
vn 0.1034 0.7547 -0.6479
vn 0.0993 0.7504 -0.6535
vn 0.0980 0.7545 -0.6490
vn -0.2285 0.7051 -0.6713
vn 0.0646 0.8399 -0.5389
vn 0.5575 0.3391 -0.7578
vn 0.5608 0.3378 -0.7559
vn 0.5608 0.3347 -0.7573
vn 0.3028 0.8491 -0.4328
vn 0.0637 0.9414 -0.3312
vn -0.0354 0.6921 -0.7210
vn -0.0608 0.2084 -0.9762
vn -0.0578 0.2081 -0.9764
vn -0.0592 0.2079 -0.9764
vn -0.6425 0.3030 -0.7039
vn -0.5990 0.7161 -0.3582
vn -0.5975 0.7149 -0.3631
vn -0.6016 0.7126 -0.3609
vn -0.3106 0.9383 0.1524
vn 0.5997 0.4337 -0.6725
vn 0.5990 0.4337 -0.6731
vn 0.5986 0.4343 -0.6731
vn 0.2555 0.9157 -0.3103
vn 0.3522 0.8463 -0.3996
vn 0.3448 0.8503 -0.3978
vn 0.3512 0.8473 -0.3985
vn 0.3694 0.7124 -0.5967
vn -0.2298 0.7731 -0.5911
vn 0.0405 0.6120 -0.7899
vn 0.5994 0.4364 -0.6710
vn -0.0516 0.5802 -0.8128
vn -0.0512 0.5832 -0.8107
vn -0.0477 0.5841 -0.8103
vn -0.3070 0.3553 -0.8829
vn -0.3759 0.3217 -0.8690
vn 0.2154 0.2270 -0.9498
vn 0.0217 -0.9995 -0.0229
vn 0.0220 -0.9995 -0.0232
vn 0.1360 0.2289 -0.9639
vn -0.0998 0.5211 -0.8476
vn 0.1677 0.1061 -0.9801
vn -0.6601 0.5894 -0.4657
vn -0.6607 0.5875 -0.4673
vn -0.6611 0.5881 -0.4659
vn 0.1891 -0.4873 -0.8525
vn 0.1909 -0.4909 -0.8500
vn 0.1845 -0.4870 -0.8537
vn -0.4754 0.2617 -0.8399
vn -0.4106 0.3165 -0.8551
vn -0.4066 0.3144 -0.8578
vn -0.4101 0.3130 -0.8567
vn -0.3335 0.3075 -0.8912
vn -0.3260 0.1018 -0.9399
vn -0.0522 -0.1831 -0.9817
vn 0.1843 -0.4904 -0.8518
vn -0.0680 -0.1800 -0.9813
vn -0.3692 0.3315 -0.8682
vn -0.3710 0.3295 -0.8682
vn -0.3717 0.3257 -0.8694
vn -0.6146 -0.2092 -0.7606
vn -0.6140 -0.2104 -0.7608
vn -0.6145 -0.2100 -0.7604
vn -0.1211 -0.2089 -0.9704
vn -0.0151 -0.9954 0.0945
vn 0.5715 -0.0232 -0.8203
vn 0.4762 0.1528 -0.8659
vn 0.4882 0.0596 -0.8707
vn -0.2282 0.0518 -0.9722
vn -0.0345 -0.1110 -0.9932
vn 0.4299 -0.4503 -0.7826
vn 0.4327 -0.4493 -0.7816
vn 0.4270 -0.4514 -0.7835
vn 0.3892 -0.1737 -0.9046
vn 0.3911 -0.1748 -0.9036
vn 0.3868 -0.1793 -0.9045
vn -0.0347 -0.3625 -0.9313
vn -0.0372 -0.3644 -0.9305
vn -0.0365 -0.3634 -0.9309
vn 0.4445 0.1133 -0.8886
vn 0.2778 -0.3559 -0.8923
vn -0.5740 -0.1159 -0.8106
vn -0.5743 -0.1107 -0.8111
vn -0.5696 -0.1167 -0.8136
vn 0.2121 -0.0759 0.9743
vn -0.4290 -0.4139 -0.8029
vn -0.0949 0.3117 -0.9454
vn -0.6921 -0.3644 -0.6231
vn 0.2712 -0.1787 -0.9458
vn -0.6341 0.1737 -0.7535
vn -0.6334 0.1741 -0.7540
vn -0.6338 0.1725 -0.7540
vn 0.2663 -0.3640 -0.8925
vn 0.2559 -0.2030 -0.9452
vn -0.0910 -0.5312 -0.8424
vn 0.2560 -0.1592 -0.9535
vn 0.3562 0.0925 -0.9298
vn 0.0747 0.1461 -0.9864
vn 0.1162 -0.2392 -0.9640
vn 0.1756 -0.2370 -0.9555
vn 0.2324 -0.1518 -0.9607
vn 0.2860 0.0747 -0.9553
vn 0.0618 -0.7364 -0.6738
vn 0.4392 0.2428 -0.8650
vn 0.4299 0.2383 -0.8708
vn 0.4334 0.2430 -0.8678
vn 0.0168 -0.9991 -0.0401
vn -0.7992 0.4592 -0.3878
vn -0.0022 -0.9989 0.0475
vn 0.1698 -0.2376 -0.9564
vn -0.3903 0.1257 -0.9121
vn -0.4234 0.1392 -0.8952
vn -0.0673 -0.4210 -0.9046
vn 0.1855 -0.1574 -0.9700
vn 0.6695 -0.7242 0.1649
vn -0.4374 -0.0806 -0.8956
vn -0.1169 -0.1763 -0.9774
vn -0.4794 -0.5164 -0.7096
vn -0.4784 -0.5184 -0.7087
vn -0.4815 -0.5153 -0.7089
vn 0.1483 0.0425 -0.9880
vn 0.0205 0.0246 -0.9995
vn 0.0217 -0.9997 0.0108
vn 0.1069 -0.0799 -0.9911
vn -0.3591 0.9079 -0.2164
vn -0.3609 0.9092 -0.2077
vn -0.3550 0.9121 -0.2051
vn -0.1210 -0.4919 -0.8622
vn -0.9593 0.1537 -0.2370
vn -0.5294 -0.3859 -0.7556
vn -0.5328 -0.3851 -0.7535
vn -0.5271 -0.3847 -0.7578
vn -0.5669 -0.5220 -0.6373
vn -0.3348 0.0062 -0.9423
vn -0.3364 0.0023 -0.9417
vn -0.3373 0.0072 -0.9414
vn -0.4042 0.2886 -0.8679
vn -0.1086 -0.9936 -0.0307
vn -0.1088 -0.9936 -0.0312
vn -0.1082 -0.9936 -0.0309
vn -0.6592 -0.5322 0.5313
vn -0.6588 -0.5323 0.5316
vn -0.6588 -0.5327 0.5313
vn -0.1551 -0.4551 0.8768
vn -0.3452 0.9380 -0.0314
vn 0.0338 -0.9987 0.0374
vn 0.0343 -0.9987 0.0371
vn 0.0342 -0.9987 0.0375
vn 0.6083 -0.7829 0.1304
vn 0.0833 -0.9651 -0.2482
vn 0.0035 -0.9741 0.2261
vn 0.1138 -0.9648 -0.2371
vn 0.0342 -0.9963 0.0792
vn -0.9681 0.0373 -0.2477
vn -0.1741 -0.9836 -0.0480
vn 0.0480 -0.9988 0.0128
vn 0.5074 -0.8616 -0.0125
vn -0.0126 -0.9955 0.0940
vn -0.0129 -0.9955 0.0940
vn -0.0121 -0.9955 0.0944
vn -0.0113 -0.9956 0.0932
vn -0.0806 -0.9954 0.0512
vn -0.0672 -0.9950 0.0736
vn -0.0335 -0.9977 0.0595
vn -0.0330 -0.9977 0.0595
vn -0.0337 -0.9976 0.0600
vn 0.3992 -0.8632 0.3090
vn 0.4011 -0.8624 0.3090
vn -0.3459 -0.9165 -0.2011
vn -0.0576 -0.9555 0.2893
vn 0.2724 -0.9415 -0.1985
vn -0.6047 -0.6811 0.4129
vn 0.2557 -0.9648 0.0607
vn -0.7730 -0.6343 -0.0108
vn -0.7778 -0.6285 -0.0104
vn -0.7790 -0.6266 -0.0220
vn 0.1934 -0.9503 0.2440
vn -0.0327 -0.9994 0.0103
vn -0.2053 -0.9188 0.3372
vn 0.2676 -0.9621 0.0519
vn 0.0944 -0.9955 -0.0003
vn 0.0756 -0.9971 -0.0035
vn -0.6860 -0.5520 0.4740
vn -0.1797 -0.9833 0.0293
vn -0.1802 -0.9832 0.0300
vn -0.1810 -0.9830 0.0299
vn -0.4926 -0.8142 -0.3073
vn -0.5491 -0.7415 0.3855
vn 0.2023 -0.8243 0.5288
vn 0.2124 -0.8246 0.5243
vn 0.2091 -0.8224 0.5291
vn -0.2492 -0.9646 0.0859
vn -0.2497 -0.9645 0.0858
vn -0.3671 -0.9035 -0.2211
vn 0.0892 -0.9631 -0.2538
vn -0.7143 -0.1358 0.6865
vn -0.2068 0.3393 -0.9177
vn -0.2079 0.3411 -0.9167
vn -0.2106 0.3450 -0.9147
vn 0.1181 -0.9929 0.0140
vn 0.0133 -0.9988 0.0468
vn 0.0208 -0.9987 0.0470
vn 0.0077 -0.9986 0.0517
vn -0.2375 -0.9477 0.2134
vn -0.3203 -0.8363 0.4451
vn -0.3156 -0.8354 0.4500
vn -0.3265 -0.8354 0.4422
vn -0.3245 -0.8326 0.4489
vn 0.0304 -0.9984 0.0484
vn 0.0299 -0.9984 0.0481
vn 0.0309 -0.9984 0.0483
vn -0.2937 -0.9366 -0.1912
vn -0.2042 -0.9558 -0.2115
vn -0.0639 -0.9979 0.0096
vn -0.2183 -0.6453 0.7321
vn -0.2167 -0.6525 0.7261
vn -0.2132 -0.6447 0.7341
vn 0.0297 -0.9995 0.0106
vn -0.1146 -0.9934 0.0010
vn -0.1138 -0.9935 0.0003
vn -0.0094 -0.9999 0.0089
vn 0.0238 -0.9983 0.0534
vn 0.0239 -0.9983 0.0529
vn 0.0243 -0.9983 0.0531
vn 0.0139 -0.9997 -0.0178
vn 0.0150 -0.9997 -0.0179
vn -0.0859 -0.9949 0.0530
vn -0.0865 -0.9948 0.0532
vn 0.7100 -0.4646 0.5291
vn 0.7749 -0.5702 0.2726
vn 0.0135 -0.9924 0.1224
vn -0.0282 -0.9993 0.0261
vn 0.6799 -0.6829 0.2670
vn -0.1168 -0.9855 0.1231
vn -0.0897 -0.5797 0.8099
vn 0.5553 -0.8161 0.1601
vn 0.0087 -0.9944 0.1052
vn 0.0088 -0.9944 0.1057
vn 0.0087 -0.9945 0.1048
vn -0.3446 -0.9355 0.0782
vn -0.5613 -0.2906 0.7749
vn 0.0269 -0.9983 0.0520
vn 0.0271 -0.9983 0.0517
vn -0.0669 -0.9145 0.3991
vn -0.0660 -0.9145 0.3992
vn -0.0655 -0.9145 0.3993
vn 0.0629 -0.9979 -0.0142
vn 0.0626 -0.9979 -0.0146
vn -0.2141 -0.9713 0.1036
vn -0.1469 -0.9884 0.0386
vn 0.0161 -0.9803 -0.1968
vn -0.6994 -0.6180 -0.3590
vn -0.0007 -0.9992 0.0405
vn 0.3978 -0.8187 0.4141
vn 0.4027 -0.8166 0.4136
vn 0.4002 -0.8171 0.4150
vn 0.0118 -0.9988 0.0470
vn -0.2411 -0.9661 0.0925
vn 0.0702 -0.9957 -0.0601
vn -0.1944 -0.9681 0.1580
vt 0.479765 0.751406
vt 0.451168 0.800996
vt 0.445178 0.747215
vt 0.508149 0.207528
vt 0.481165 0.248692
vt 0.502686 0.182962
vt 0.463779 0.173095
vt 0.764295 0.522540
vt 0.792221 0.500548
vt 0.802346 0.540989
vt 0.051277 0.173916
vt 0.073377 0.216127
vt 0.024217 0.197865
vt 0.431387 0.264603
vt 0.444563 0.238577
vt 0.241271 0.746015
vt 0.246542 0.686025
vt 0.248897 0.730977
vt 0.659580 0.082939
vt 0.641315 0.115299
vt 0.612735 0.087905
vt 0.176554 0.904913
vt 0.171919 0.860402
vt 0.213708 0.853224
vt 0.758556 0.340053
vt 0.723412 0.274972
vt 0.748554 0.265653
vt 0.639970 0.177772
vt 0.616232 0.189657
vt 0.309027 0.526724
vt 0.368928 0.511028
vt 0.320128 0.629913
vt 0.169850 0.771041
vt 0.161303 0.747091
vt 0.175087 0.740993
vt 0.852331 0.288307
vt 0.821119 0.323786
vt 0.830914 0.288221
vt 0.603807 0.433327
vt 0.605787 0.403032
vt 0.658441 0.446292
vt 0.526412 0.109151
vt 0.549530 0.084386
vt 0.579534 0.052056
vt 0.309051 0.293610
vt 0.339341 0.347049
vt 0.292624 0.337391
vt 0.275333 0.929270
vt 0.257911 0.890081
vt 0.285439 0.901251
vt 0.835492 0.244264
vt 0.275935 0.290745
vt 0.013902 0.545236
vt 0.023045 0.516122
vt 0.038223 0.508791
vt 0.688690 0.501594
vt 0.658804 0.505118
vt 0.621292 0.483083
vt 0.501975 0.095485
vt 0.436250 0.136556
vt 0.388765 0.304093
vt 0.359997 0.038215
vt 0.439442 0.049857
vt 0.407012 0.086057
vt 0.307885 0.853886
vt 0.400668 0.790478
vt 0.455318 0.864636
vt 0.385290 0.832162
vt 0.078881 0.913109
vt 0.077934 0.842705
vt 0.086435 0.947378
vt 0.297047 0.256397
vt 0.435773 0.930747
vt 0.446877 0.931436
vt 0.446229 0.959090
vt 0.479958 0.054787
vt 0.832151 0.024203
vt 0.799294 0.060659
vt 0.760201 0.019783
vt 0.330005 0.267070
vt 0.402239 0.027410
vt 0.412459 0.118276
vt 0.357353 0.613551
vt 0.691235 0.811366
vt 0.693834 0.762734
vt 0.700072 0.783013
vt 0.346481 0.132706
vt 0.369163 0.067300
vt 0.181721 0.698633
vt 0.124060 0.729603
vt 0.163240 0.690253
vt 0.887865 0.259496
vt 0.909932 0.206781
vt 0.920345 0.248147
vt 0.359370 0.247081
vt 0.029922 0.752484
vt 0.041546 0.787796
vt 0.013110 0.868477
vt 0.984168 0.009162
vt 0.975855 0.056873
vt 0.971875 0.016929
vt 0.320651 0.227848
vt 0.335294 0.077069
vt 0.312752 0.090808
vt 0.811021 0.353614
vt 0.827795 0.355648
vt 0.822972 0.388871
vt 0.850250 0.369924
vt 0.837164 0.352666
vt 0.850729 0.351412
vt 0.417552 0.296432
vt 0.946430 0.212853
vt 0.941619 0.223112
vt 0.781209 0.947824
vt 0.798801 0.949397
vt 0.796056 0.983918
vt 0.500383 0.929955
vt 0.508593 0.930437
vt 0.504538 0.947098
vt 0.358036 0.194616
vt 0.402838 0.202812
vt 0.226961 0.927583
vt 0.225526 0.975797
vt 0.199071 0.938640
vt 0.334458 0.198961
vt 0.787148 0.917537
vt 0.629003 0.876978
vt 0.570688 0.882757
vt 0.610627 0.843665
vt 0.979516 0.362110
vt 0.948129 0.371877
vt 0.943946 0.328958
vt 0.910504 0.317479
vt 0.871793 0.366928
vt 0.866530 0.329542
vt 0.088813 0.012902
vt 0.143574 0.025732
vt 0.081768 0.044880
vt 0.908329 0.873340
vt 0.920044 0.922939
vt 0.893999 0.887307
vt 0.386686 0.162035
vt 0.450071 0.724454
vt 0.399634 0.747927
vt 0.988000 0.776946
vt 0.964043 0.792458
vt 0.959634 0.734318
vt 0.977760 0.733133
vt 0.530236 0.139221
vt 0.305286 0.121523
vt 0.313374 0.153066
vt 0.899613 0.149992
vt 0.905503 0.084563
vt 0.918166 0.136445
vt 0.272336 0.818692
vt 0.256121 0.853273
vt 0.376884 0.949786
vt 0.384803 0.919199
vt 0.392220 0.925473
vt 0.765536 0.580711
vt 0.798260 0.587177
vt 0.788185 0.643012
vt 0.776572 0.249523
vt 0.719998 0.440309
vt 0.733319 0.488881
vt 0.710116 0.487887
vt 0.793456 0.414755
vt 0.760115 0.451251
vt 0.751568 0.410596
vt 0.588868 0.905152
vt 0.616272 0.909900
vt 0.982187 0.098252
vt 0.969534 0.073063
vt 0.135678 0.927587
vt 0.127840 0.939939
vt 0.131280 0.918810
vt 0.790552 0.464271
vt 0.722025 0.542917
vt 0.471556 0.971323
vt 0.454087 0.950702
vt 0.480285 0.919969
vt 0.867725 0.249421
vt 0.869122 0.151659
vt 0.051828 0.575826
vt 0.022309 0.605069
vt 0.012238 0.580910
vt 0.784802 0.713633
vt 0.761971 0.625854
vt 0.754933 0.485562
vt 0.126181 0.571704
vt 0.070236 0.551352
vt 0.094970 0.515212
vt 0.747285 0.524095
vt 0.172789 0.624962
vt 0.199379 0.666692
vt 0.141459 0.671562
vt 0.085611 0.615199
vt 0.121830 0.496866
vt 0.035471 0.922636
vt 0.024340 0.910597
vt 0.033590 0.834641
vt 0.745282 0.773619
vt 0.735689 0.708073
vt 0.758042 0.672096
vt 0.140872 0.585110
vt 0.127755 0.627028
vt 0.791518 0.770854
vt 0.769758 0.798833
vt 0.118593 0.638138
vt 0.065268 0.883803
vt 0.429305 0.008768
vt 0.926642 0.017039
vt 0.880308 0.086025
vt 0.758520 0.881811
vt 0.767573 0.911402
vt 0.738403 0.964904
vt 0.079138 0.702723
vt 0.029830 0.666650
vt 0.709200 0.970985
vt 0.723244 0.930209
vt 0.052340 0.518557
vt 0.983748 0.462795
vt 0.985279 0.484446
vt 0.961229 0.499068
vt 0.662943 0.544991
vt 0.695787 0.698002
vt 0.648481 0.658668
vt 0.076002 0.327825
vt 0.109608 0.367090
vt 0.080774 0.366224
vt 0.047696 0.753573
vt 0.134733 0.676552
vt 0.221759 0.599207
vt 0.167234 0.726027
vt 0.167437 0.717005
vt 0.741296 0.064660
vt 0.766511 0.102229
vt 0.752842 0.624787
vt 0.002387 0.693201
vt 0.001539 0.698033
vt 0.055043 0.495186
vt 0.793155 0.708007
vt 0.645922 0.727807
vt 0.599463 0.752749
vt 0.619845 0.743695
vt 0.795847 0.782427
vt 0.835497 0.806789
vt 0.847897 0.763136
vt 0.883029 0.765676
vt 0.985459 0.135112
vt 0.972494 0.171992
vt 0.965510 0.158632
vt 0.620035 0.005966
vt 0.661972 0.038093
vt 0.636122 0.066163
vt 0.588600 0.529823
vt 0.575155 0.478343
vt 0.587297 0.941476
vt 0.572498 0.933443
vt 0.584731 0.926007
vt 0.735015 0.806015
vt 0.748617 0.854146
vt 0.716925 0.855373
vt 0.981873 0.895485
vt 0.965386 0.928088
vt 0.966858 0.872990
vt 0.265641 0.488381
vt 0.262275 0.524647
vt 0.244810 0.483732
vt 0.595190 0.145460
vt 0.130510 0.345532
vt 0.584356 0.119141
vt 0.965899 0.140720
vt 0.980368 0.119570
vt 0.157852 0.544127
vt 0.862270 0.310244
vt 0.857540 0.306749
vt 0.861022 0.298722
vt 0.088047 0.096731
vt 0.370590 0.589390
vt 0.637594 0.958409
vt 0.634040 0.958409
vt 0.636354 0.953262
vt 0.035533 0.726972
vt 0.038325 0.955971
vt 0.035355 0.949169
vt 0.038518 0.947931
vt 0.159757 0.972877
vt 0.180478 0.922515
vt 0.181800 0.977884
vt 0.060271 0.733929
vt 0.034612 0.033891
vt 0.779001 0.556380
vt 0.094557 0.458023
vt 0.055671 0.411541
vt 0.103621 0.433971
vt 0.944628 0.606087
vt 0.926474 0.668752
vt 0.938729 0.531350
vt 0.545381 0.855303
vt 0.009402 0.716146
vt 0.721285 0.378614
vt 0.692620 0.342566
vt 0.946777 0.300183
vt 0.971570 0.321116
vt 0.802475 0.259394
vt 0.960462 0.826776
vt 0.992897 0.812141
vt 0.668233 0.125500
vt 0.879234 0.805287
vt 0.947255 0.660452
vt 0.779473 0.379115
vt 0.466186 0.296278
vt 0.707655 0.816142
vt 0.961117 0.550535
vt 0.035683 0.448290
vt 0.014361 0.407431
vt 0.104083 0.277468
vt 0.067201 0.276499
vt 0.709844 0.943143
vt 0.016746 0.083017
vt 0.687382 0.048047
vt 0.707416 0.022253
vt 0.050640 0.392700
vt 0.520479 0.064208
vt 0.011015 0.149188
vt 0.527296 0.080067
vt 0.245917 0.843293
vt 0.234819 0.863615
vt 0.232797 0.840338
vt 0.117965 0.925603
vt 0.108060 0.835396
vt 0.124296 0.890608
vt 0.957746 0.692210
vt 0.898946 0.275659
vt 0.899910 0.807676
vt 0.914382 0.740583
vt 0.334564 0.190638
vt 0.337075 0.167712
vt 0.656729 0.758017
vt 0.685991 0.739103
vt 0.329334 0.812577
vt 0.869538 0.279703
vt 0.680513 0.865528
vt 0.660023 0.822827
vt 0.269155 0.604287
vt 0.265863 0.583323
vt 0.268651 0.581906
vt 0.879388 0.177993
vt 0.265533 0.773029
vt 0.297556 0.953627
vt 0.299272 0.949610
vt 0.299272 0.955290
vt 0.596076 0.744345
vt 0.312863 0.754253
vt 0.899013 0.188357
vt 0.937668 0.179754
vt 0.877538 0.202254
vt 0.741840 0.128513
vt 0.311430 0.382935
vt 0.195568 0.747812
vt 0.220667 0.758335
vt 0.794490 0.354525
vt 0.803932 0.346146
vt 0.801609 0.372169
vt 0.166523 0.990680
vt 0.153761 0.987327
vt 0.206082 0.769147
vt 0.218654 0.797294
vt 0.195657 0.800674
vt 0.703167 0.306507
vt 0.859595 0.277518
vt 0.860496 0.293107
vt 0.855705 0.271995
vt 0.003833 0.821703
vt 0.600947 0.763680
vt 0.740985 0.168441
vt 0.779670 0.153462
vt 0.745121 0.206857
vt 0.279810 0.752398
vt 0.919481 0.468313
vt 0.949354 0.462789
vt 0.144586 0.946193
vt 0.338840 0.388838
vt 0.807252 0.396197
vt 0.789300 0.371152
vt 0.293747 0.361967
vt 0.547337 0.125950
vt 0.776963 0.899986
vt 0.779902 0.841614
vt 0.798544 0.866798
vt 0.550234 0.342489
vt 0.584138 0.314187
vt 0.581743 0.374555
vt 0.598351 0.303738
vt 0.604785 0.251403
vt 0.556393 0.278129
vt 0.791068 0.820219
vt 0.138908 0.159639
vt 0.163993 0.166459
vt 0.153639 0.197702
vt 0.242849 0.648244
vt 0.247573 0.620337
vt 0.260822 0.667354
vt 0.840380 0.852638
vt 0.828452 0.893990
vt 0.820671 0.870876
vt 0.860373 0.912083
vt 0.833006 0.942867
vt 0.917566 0.355397
vt 0.819435 0.853674
vt 0.950639 0.703339
vt 0.949351 0.714583
vt 0.947824 0.709344
vt 0.871288 0.880622
vt 0.090026 0.756032
vt 0.172254 0.236362
vt 0.119257 0.208064
vt 0.876085 0.847062
vt 0.874344 0.855821
vt 0.877968 0.508321
vt 0.872734 0.555660
vt 0.850968 0.526929
vt 0.880014 0.737555
vt 0.833668 0.739230
vt 0.127893 0.247453
vt 0.148664 0.305759
vt 0.359339 0.821533
vt 0.372636 0.778816
vt 0.201050 0.898240
vt 0.505788 0.866681
vt 0.523248 0.828827
vt 0.508438 0.903555
vt 0.504681 0.836016
vt 0.583643 0.949271
vt 0.586617 0.950887
vt 0.586531 0.956951
vt 0.395326 0.571584
vt 0.369938 0.596298
vt 0.376286 0.585040
vt 0.364133 0.601190
vt 0.587719 0.028360
vt 0.595965 0.016012
vt 0.596430 0.033228
vt 0.596704 0.183328
vt 0.859570 0.956221
vt 0.854050 0.961564
vt 0.984613 0.432980
vt 0.985589 0.403458
vt 0.820479 0.776290
vt 0.545494 0.880043
vt 0.548587 0.891871
vt 0.115892 0.797013
vt 0.893222 0.409389
vt 0.913180 0.407937
vt 0.902061 0.457809
vt 0.113772 0.404498
vt 0.113283 0.394020
vt 0.127032 0.408640
vt 0.890038 0.548639
vt 0.175780 0.100832
vt 0.172278 0.125040
vt 0.121207 0.115719
vt 0.787901 0.288320
vt 0.795688 0.293434
vt 0.788522 0.311344
vt 0.207617 0.180718
vt 0.229168 0.130153
vt 0.237344 0.192274
vt 0.439945 0.557059
vt 0.466097 0.557649
vt 0.424988 0.591789
vt 0.930920 0.716796
vt 0.927201 0.718824
vt 0.929729 0.701124
vt 0.097558 0.418896
vt 0.267271 0.177564
vt 0.946041 0.820285
vt 0.300770 0.638206
vt 0.198901 0.207965
vt 0.194212 0.226112
vt 0.093914 0.254656
vt 0.487822 0.903544
vt 0.448192 0.900017
vt 0.189504 0.124341
vt 0.133151 0.366210
vt 0.185831 0.322330
vt 0.703318 0.220047
vt 0.084508 0.425849
vt 0.176451 0.050109
vt 0.193141 0.065688
vt 0.233090 0.683779
vt 0.187904 0.293420
vt 0.197688 0.267121
vt 0.920927 0.424752
vt 0.944534 0.411302
vt 0.505627 0.669933
vt 0.503186 0.641317
vt 0.511327 0.662089
vt 0.278314 0.507707
vt 0.294178 0.513849
vt 0.518332 0.806111
vt 0.504411 0.808269
vt 0.525343 0.762705
vt 0.812230 0.337113
vt 0.798726 0.342358
vt 0.853472 0.457485
vt 0.551983 0.159683
vt 0.573790 0.169758
vt 0.400787 0.870519
vt 0.236855 0.800871
vt 0.247100 0.793232
vt 0.244143 0.824195
vt 0.838517 0.077115
vt 0.856068 0.095358
vt 0.848110 0.112794
vt 0.808996 0.144732
vt 0.743317 0.028056
vt 0.457239 0.526753
vt 0.485047 0.507554
vt 0.451440 0.538410
vt 0.557305 0.555632
vt 0.545564 0.517664
vt 0.398204 0.963135
vt 0.395854 0.965597
vt 0.395854 0.960038
vt 0.512512 0.545385
vt 0.526519 0.570904
vt 0.880651 0.470085
vt 0.431169 0.956519
vt 0.423352 0.945430
vt 0.432024 0.936343
vt 0.623848 0.517945
vt 0.626652 0.558223
vt 0.501933 0.595357
vt 0.598733 0.583052
vt 0.913942 0.718030
vt 0.898194 0.686227
vt 0.902614 0.645503
vt 0.898468 0.024063
vt 0.258357 0.941117
vt 0.251280 0.933391
vt 0.254572 0.931359
vt 0.856536 0.054499
vt 0.073860 0.756566
vt 0.624006 0.607226
vt 0.570346 0.625700
vt 0.543976 0.586149
vt 0.939250 0.729813
vt 0.526070 0.644008
vt 0.500725 0.789202
vt 0.498824 0.771641
vt 0.517110 0.750903
vt 0.810677 0.494583
vt 0.516685 0.718241
vt 0.393465 0.568295
vt 0.873717 0.721736
vt 0.575769 0.678035
vt 0.815104 0.741450
vt 0.828441 0.124045
vt 0.231499 0.753432
vt 0.236253 0.694051
vt 0.946137 0.897516
vt 0.950081 0.939432
vt 0.675887 0.698932
vt 0.769609 0.197972
vt 0.276983 0.661919
vt 0.524397 0.681243
vt 0.908637 0.291323
vt 0.649439 0.676559
vt 0.550081 0.712529
vt 0.810531 0.932973
vt 0.429524 0.452993
vt 0.453994 0.453571
vt 0.436048 0.463337
vt 0.414232 0.448334
vt 0.377262 0.480676
vt 0.332483 0.430378
vt 0.372395 0.432910
vt 0.355602 0.436062
vt 0.423934 0.412482
vt 0.374598 0.454456
vt 0.893889 0.574821
vt 0.897274 0.580245
vt 0.419682 0.439626
vt 0.567243 0.954274
vt 0.569432 0.947729
vt 0.571551 0.954274
vt 0.443704 0.476389
vt 0.343084 0.410621
vt 0.207020 0.561525
vt 0.330986 0.462927
vt 0.342138 0.487575
vt 0.337914 0.450950
vt 0.423227 0.457153
vt 0.431801 0.469720
vt 0.150238 0.808664
vt 0.453399 0.491158
vt 0.697772 0.463315
vt 0.450508 0.535579
vt 0.440212 0.552500
vt 0.583859 0.805405
vt 0.163321 0.519973
vt 0.172977 0.773603
vt 0.310474 0.465959
vt 0.545036 0.774459
vt 0.772683 0.400275
vt 0.417356 0.663968
vt 0.397177 0.701137
vt 0.362860 0.711366
vt 0.570186 0.756896
vt 0.905240 0.600975
vt 0.488622 0.534268
vt 0.670420 0.934186
vt 0.681531 0.931233
vt 0.673703 0.948624
vt 0.327319 0.678083
vt 0.438559 0.483104
vt 0.294988 0.678680
vt 0.427428 0.613421
vt 0.467231 0.637190
vt 0.399814 0.638711
vt 0.346705 0.637184
vt 0.448610 0.497073
vt 0.336027 0.950766
vt 0.341142 0.932991
vt 0.345596 0.954934
vt 0.365689 0.964431
vt 0.351099 0.927406
vt 0.363091 0.917137
vt 0.484031 0.600516
vt 0.350956 0.950100
vt 0.385486 0.606642
vt 0.382922 0.634893
vt 0.350918 0.626043
vt 0.344169 0.635766
vt 0.356569 0.622203
vt 0.363282 0.608568
vt 0.702419 0.398439
vt 0.704744 0.394292
vt 0.706276 0.398439
vt 0.563883 0.944777
vt 0.551277 0.946630
vt 0.566143 0.925885
vt 0.364235 0.474712
vt 0.406672 0.583900
s 0
f 131/1/1 47/2/1 41/3/1
f 6/4/2 55/5/3 143/6/4
f 143/6/5 55/5/5 30/7/5
f 100/8/6 88/9/6 16/10/6
f 146/11/7 6/12/7 143/13/7
f 55/5/8 45/14/9 141/15/8
f 243/16/10 252/17/10 236/18/10
f 52/19/11 140/20/11 58/21/11
f 47/22/12 131/23/12 11/24/12
f 15/25/13 156/26/14 28/27/15
f 140/20/16 65/28/16 138/29/16
f 215/30/17 220/31/18 217/32/17
f 10/33/19 104/34/19 28/35/19
f 117/36/20 183/37/20 185/38/20
f 183/39/21 117/40/22 111/41/22
f 2/42/23 143/6/24 30/7/25
f 75/43/26 11/44/26 58/21/26
f 63/45/27 94/46/27 69/47/27
f 84/48/28 19/49/29 9/50/30
f 117/36/31 185/38/31 126/51/31
f 69/47/32 43/52/32 63/45/32
f 36/53/33 32/54/33 19/55/33
f 218/56/34 112/57/34 197/58/34
f 31/59/35 30/7/35 14/60/35
f 63/45/36 74/61/36 94/46/36
f 105/62/37 76/63/37 18/64/37
f 9/50/38 19/49/38 22/65/38
f 40/66/39 114/67/40 1/68/41
f 80/69/42 165/70/43 142/71/44
f 43/52/45 50/72/45 63/45/45
f 96/73/46 52/74/46 58/75/46
f 82/76/47 31/59/47 14/60/47
f 177/77/48 207/78/48 175/79/48
f 64/80/49 74/61/50 63/45/51
f 76/63/52 82/76/52 18/64/52
f 108/81/53 76/63/53 105/62/53
f 82/76/54 56/82/54 18/64/54
f 220/31/55 228/83/55 217/32/55
f 43/84/56 42/85/56 50/86/56
f 59/87/57 54/88/58 18/64/59
f 134/89/60 92/90/60 184/91/60
f 63/45/61 50/72/61 64/80/61
f 150/92/62 8/93/62 27/94/62
f 66/95/63 74/61/64 64/80/65
f 71/96/66 89/97/66 4/98/66
f 32/99/67 36/100/67 39/101/67
f 50/72/68 48/102/68 64/80/68
f 36/103/69 54/88/69 39/104/69
f 48/105/70 50/106/70 42/107/70
f 244/108/71 26/109/72 85/110/73
f 66/95/74 45/14/75 74/61/76
f 45/14/77 88/111/77 74/61/77
f 8/93/78 164/112/78 27/113/78
f 48/102/79 66/95/79 64/80/79
f 25/114/80 164/115/80 8/116/80
f 51/117/81 48/118/81 42/119/81
f 67/120/82 66/95/82 48/102/82
f 73/121/83 45/14/83 66/95/83
f 67/120/84 73/121/85 66/95/86
f 164/122/87 51/123/87 42/124/87
f 51/125/88 67/120/89 48/102/90
f 25/114/91 51/126/92 164/115/93
f 157/127/94 179/128/94 123/129/94
f 39/104/95 54/88/96 59/87/95
f 33/130/97 109/131/98 145/132/99
f 155/133/100 159/134/100 148/135/100
f 73/121/101 141/15/101 45/14/101
f 92/136/102 35/137/103 37/138/104
f 269/139/105 62/140/105 101/141/105
f 82/76/106 14/60/106 56/82/106
f 154/142/107 73/121/107 67/120/107
f 30/7/108 141/15/108 73/121/108
f 151/143/109 41/3/109 179/144/109
f 141/15/110 30/7/111 55/5/112
f 29/145/113 34/146/113 85/147/113
f 29/145/114 85/147/115 26/148/116
f 146/149/117 143/6/117 2/42/117
f 162/150/118 59/87/118 49/151/118
f 14/60/119 73/121/119 154/142/119
f 30/7/120 73/121/120 14/60/120
f 13/152/121 9/153/121 22/154/121
f 162/150/122 39/104/122 59/87/122
f 154/142/123 56/82/123 14/60/123
f 22/65/124 19/49/125 162/155/126
f 19/49/127 32/156/127 162/155/127
f 162/157/128 32/158/128 39/159/128
f 18/64/129 154/142/129 59/87/129
f 72/160/130 119/161/130 97/162/130
f 104/163/131 15/25/131 28/27/131
f 104/164/132 90/165/132 15/166/132
f 94/167/133 87/168/133 104/169/133
f 179/170/134 157/127/134 151/171/134
f 87/168/135 90/165/135 104/164/135
f 36/100/136 105/172/136 54/173/136
f 93/174/137 103/175/137 91/176/137
f 94/167/138 74/177/138 87/168/138
f 90/165/139 68/178/139 15/166/139
f 100/179/140 90/180/140 87/181/140
f 8/93/141 150/92/141 266/182/141
f 130/183/142 9/153/143 13/152/144
f 103/184/145 108/185/146 105/186/145
f 97/162/147 101/187/147 89/188/147
f 88/9/148 100/189/148 87/168/148
f 85/190/149 93/191/149 84/192/149
f 100/193/150 68/178/150 90/165/150
f 227/194/151 117/195/151 126/196/151
f 93/191/152 98/197/152 103/184/152
f 247/198/153 85/190/153 84/192/153
f 86/199/154 95/200/155 102/201/156
f 88/9/157 87/168/158 74/177/159
f 95/202/160 4/203/161 102/204/162
f 103/184/163 105/186/163 36/53/163
f 26/205/164 227/194/164 29/206/164
f 86/207/165 142/208/165 95/202/165
f 34/209/166 98/197/167 85/190/168
f 86/199/169 102/201/169 101/210/169
f 108/81/170 107/211/170 76/63/170
f 84/212/171 9/153/171 83/213/171
f 118/214/172 77/215/173 110/216/174
f 98/197/175 136/217/176 107/218/177
f 98/197/178 107/218/178 108/185/178
f 98/197/179 108/185/180 103/184/181
f 85/190/182 98/197/182 93/191/182
f 110/216/183 57/219/184 33/220/185
f 84/192/186 93/191/186 91/221/186
f 169/222/187 161/223/188 175/224/189
f 190/225/190 192/226/190 193/227/190
f 16/228/191 119/229/192 72/230/193
f 83/213/194 9/153/194 130/183/194
f 72/231/195 89/97/195 71/96/195
f 102/201/196 89/97/196 101/210/196
f 97/162/197 89/188/197 72/160/197
f 144/232/198 98/197/199 34/209/200
f 126/196/201 29/206/201 227/194/201
f 111/233/202 117/195/203 227/194/203
f 54/88/204 105/62/204 18/64/204
f 35/234/205 92/90/205 134/235/205
f 203/236/206 207/78/206 209/237/206
f 102/204/207 4/203/207 89/238/207
f 76/239/208 107/218/209 82/240/210
f 91/221/211 103/184/212 36/53/213
f 91/221/214 19/241/214 84/192/214
f 101/187/215 97/162/215 269/242/215
f 27/243/216 163/244/216 159/245/216
f 62/246/217 142/208/218 86/207/219
f 170/247/220 137/248/220 171/249/220
f 132/250/221 128/251/221 35/252/221
f 5/253/222 158/254/223 96/255/224
f 125/256/225 127/257/225 197/58/225
f 193/258/226 186/259/226 170/260/226
f 23/261/227 118/262/227 115/263/227
f 127/264/228 132/265/228 134/266/228
f 190/267/229 112/268/229 218/269/229
f 58/21/230 140/20/230 195/270/230
f 119/229/231 16/228/231 191/271/231
f 58/21/232 70/272/232 75/43/232
f 41/3/233 47/2/234 40/66/235
f 132/250/236 35/273/236 134/274/236
f 118/214/237 33/220/237 115/263/237
f 247/198/238 244/275/238 85/190/238
f 112/276/239 125/277/239 197/278/239
f 118/214/240 110/216/240 33/220/240
f 24/279/241 37/138/241 35/137/241
f 96/255/242 158/254/243 52/19/244
f 58/21/245 195/270/246 70/272/247
f 220/31/248 238/280/248 228/83/248
f 125/281/249 132/282/249 127/283/249
f 136/217/250 20/284/251 107/218/251
f 127/285/252 184/286/252 197/287/252
f 169/288/253 148/289/253 159/290/253
f 100/193/254 72/160/254 68/178/254
f 37/291/255 20/284/255 136/217/255
f 36/53/256 19/55/256 91/221/256
f 92/136/257 37/138/257 136/292/257
f 92/90/258 136/217/259 144/232/260
f 16/293/261 72/160/262 100/193/263
f 65/294/264 71/295/265 21/296/266
f 145/297/267 99/298/267 65/299/267
f 123/129/268 179/128/268 177/300/268
f 82/301/269 107/218/269 20/284/269
f 44/302/270 52/303/270 15/25/270
f 145/132/271 21/304/272 115/305/271
f 144/306/273 126/51/273 185/38/273
f 144/307/274 34/146/274 126/308/274
f 144/232/275 136/217/275 98/197/275
f 140/20/276 44/309/277 65/28/276
f 184/91/278 92/90/279 144/232/280
f 171/249/281 173/310/281 170/247/281
f 175/79/282 207/78/282 203/236/282
f 109/311/283 99/298/283 145/297/283
f 44/302/284 15/25/284 68/312/284
f 55/5/285 16/313/285 45/14/285
f 45/14/286 16/313/286 88/111/286
f 115/263/287 21/314/288 23/261/289
f 21/315/290 145/297/291 65/299/292
f 44/316/293 68/317/293 71/295/293
f 44/309/294 140/20/294 52/19/294
f 65/294/295 44/316/296 71/295/297
f 12/318/298 16/228/299 55/319/300
f 33/220/301 57/219/302 109/320/303
f 37/138/304 24/279/305 20/321/306
f 173/322/307 171/323/307 203/236/307
f 71/295/308 68/317/308 72/324/308
f 20/325/309 31/59/310 82/76/311
f 24/279/312 2/326/313 20/321/314
f 56/82/315 154/142/315 18/64/315
f 2/42/316 31/59/316 20/327/316
f 115/305/317 33/130/317 145/132/317
f 191/271/318 16/228/318 12/318/318
f 179/144/319 41/3/319 40/66/319
f 6/328/320 12/329/320 55/330/320
f 95/331/321 7/332/321 4/333/321
f 24/279/322 146/11/323 2/326/324
f 2/42/325 30/7/326 31/59/327
f 57/334/328 99/298/328 109/311/328
f 27/94/329 155/335/329 150/92/329
f 97/336/330 119/337/330 269/139/330
f 17/338/331 67/120/331 51/125/331
f 49/151/332 59/87/333 17/339/334
f 139/340/335 27/243/336 164/341/337
f 22/65/338 162/155/338 25/342/338
f 46/343/339 266/182/339 150/92/339
f 43/84/340 69/344/341 60/345/342
f 25/346/343 8/347/344 153/348/345
f 130/183/346 13/152/347 153/349/348
f 162/155/349 49/350/350 25/342/351
f 260/351/352 153/352/352 8/353/352
f 135/354/353 159/245/353 163/244/353
f 27/243/354 139/340/355 163/244/356
f 25/342/357 49/350/357 51/355/357
f 153/356/358 13/152/358 25/357/358
f 25/357/359 13/152/359 22/154/359
f 67/120/360 17/339/360 154/142/360
f 156/26/361 15/25/362 52/303/363
f 266/182/364 260/358/365 8/93/366
f 29/145/367 126/308/367 34/146/368
f 173/322/369 203/236/369 178/359/369
f 151/360/370 69/47/370 94/46/370
f 28/361/371 156/362/371 10/33/371
f 3/363/372 10/364/372 156/365/372
f 159/290/373 135/366/373 161/367/373
f 62/246/374 86/207/374 101/187/374
f 156/368/375 5/369/376 3/370/377
f 158/371/378 156/26/379 52/303/380
f 150/92/381 155/335/381 46/343/381
f 148/372/382 152/373/382 149/374/382
f 154/142/383 17/339/383 59/87/383
f 71/96/384 4/98/384 7/375/384
f 264/376/385 163/244/385 139/340/385
f 181/377/386 78/378/386 166/379/386
f 51/355/387 49/350/388 17/380/389
f 171/381/390 188/382/390 175/224/390
f 152/383/391 148/289/391 169/288/391
f 60/345/392 69/344/393 157/127/394
f 151/360/395 94/46/396 131/384/397
f 156/365/398 158/385/399 5/386/400
f 69/47/401 151/360/401 157/387/401
f 169/288/402 159/290/402 161/367/402
f 200/388/403 70/272/403 195/270/403
f 57/389/404 116/390/404 99/391/404
f 77/392/405 116/393/406 57/394/407
f 99/395/408 106/396/408 65/28/409
f 77/392/410 138/29/411 116/393/412
f 138/29/413 77/392/413 160/397/413
f 116/390/414 106/398/415 99/391/416
f 124/399/417 182/400/417 61/401/417
f 53/402/418 6/403/418 147/404/418
f 176/405/419 208/406/419 201/407/419
f 181/408/420 189/409/420 208/406/420
f 155/133/421 27/410/421 159/134/421
f 170/247/422 176/405/423 201/411/424
f 138/412/425 106/413/425 116/414/425
f 11/44/426 5/253/426 58/21/426
f 176/405/427 178/415/427 208/406/427
f 178/415/428 181/408/428 208/406/428
f 168/416/429 7/332/429 165/70/429
f 170/247/430 173/310/430 176/405/430
f 61/401/431 120/417/431 147/418/431
f 176/405/432 173/419/433 178/420/434
f 129/421/435 118/422/435 23/423/435
f 106/396/436 138/29/436 65/28/436
f 171/424/437 137/248/437 167/425/437
f 53/426/438 133/427/438 12/318/438
f 1/68/439 211/428/439 180/429/439
f 47/22/440 11/24/440 75/430/440
f 268/431/441 138/432/441 160/433/441
f 268/431/442 129/434/442 138/432/442
f 78/378/443 181/377/443 178/359/443
f 5/253/444 96/255/444 58/21/444
f 146/11/445 124/399/445 147/418/445
f 41/3/446 151/143/446 131/1/446
f 180/435/447 40/436/447 1/437/447
f 147/418/448 124/399/448 61/401/448
f 243/438/449 236/439/449 240/440/449
f 238/280/450 235/441/451 228/83/451
f 11/442/452 3/443/452 5/444/452
f 47/2/453 114/67/454 40/66/455
f 195/270/456 140/20/456 129/445/456
f 140/20/457 138/29/457 129/445/457
f 181/446/458 122/447/458 189/409/458
f 152/448/459 188/382/459 149/449/459
f 167/425/460 137/248/460 186/450/460
f 177/451/461 179/170/462 180/452/463
f 179/144/464 40/66/464 180/429/464
f 168/416/465 71/453/465 7/332/465
f 169/222/466 175/224/466 188/382/466
f 47/454/467 75/455/467 200/456/467
f 70/272/468 200/388/469 75/43/470
f 81/457/471 119/458/471 23/459/471
f 268/460/472 118/422/472 129/421/472
f 174/461/473 187/462/474 172/463/475
f 24/279/476 174/461/476 172/463/476
f 134/464/477 184/465/477 127/466/478
f 124/399/479 172/463/479 182/400/479
f 122/467/480 113/468/481 189/469/482
f 252/470/483 260/471/484 250/472/483
f 245/473/485 236/474/485 250/475/485
f 168/476/486 81/457/486 21/296/486
f 81/457/487 23/459/488 21/296/489
f 113/468/490 210/477/490 189/469/490
f 269/139/491 119/337/491 165/478/491
f 137/248/492 170/247/493 186/450/494
f 212/479/495 215/30/495 217/32/496
f 120/417/497 122/480/497 166/481/497
f 185/38/498 183/37/498 184/465/498
f 184/465/499 144/306/500 185/38/501
f 6/482/502 53/426/502 12/318/502
f 133/427/503 53/426/504 120/417/505
f 191/483/506 38/484/506 114/67/506
f 187/485/507 113/468/507 122/467/507
f 119/229/508 191/271/509 23/486/510
f 24/279/511 172/463/511 146/11/511
f 147/418/512 6/12/512 146/11/512
f 191/271/513 133/427/513 38/487/513
f 122/488/514 181/377/515 166/379/516
f 7/332/517 142/71/517 165/70/517
f 142/71/518 7/332/519 95/331/520
f 71/295/521 168/489/521 21/296/521
f 174/461/522 35/137/523 128/490/524
f 133/427/525 191/271/525 12/318/525
f 146/11/526 172/463/527 124/399/528
f 128/491/529 113/468/529 187/485/529
f 53/402/530 147/404/530 120/492/530
f 133/427/531 166/493/531 38/487/531
f 24/279/532 35/137/532 174/461/532
f 120/417/533 166/494/534 133/427/535
f 214/495/536 121/496/536 188/382/536
f 171/381/537 214/495/537 188/382/537
f 210/497/538 113/498/538 206/499/538
f 190/500/539 213/501/540 212/479/539
f 122/502/541 61/503/541 187/504/541
f 183/505/542 197/506/542 184/465/542
f 114/507/543 129/421/543 23/423/543
f 121/496/544 149/449/545 188/382/546
f 111/41/547 197/58/548 183/39/549
f 200/508/550 195/270/550 129/509/550
f 194/510/551 1/68/552 114/67/553
f 79/511/554 194/512/554 38/513/554
f 211/514/555 1/515/555 194/516/555
f 79/517/556 78/378/556 209/237/556
f 111/41/557 218/56/557 197/58/557
f 209/237/558 78/378/558 178/359/558
f 194/510/559 114/67/560 38/484/561
f 175/518/562 203/236/563 171/323/564
f 211/514/565 79/517/565 209/237/565
f 267/519/566 130/520/566 263/521/566
f 125/256/567 205/522/567 132/523/567
f 205/524/568 204/525/568 132/526/568
f 128/527/569 132/523/569 204/528/569
f 114/507/570 200/529/570 129/421/570
f 187/530/571 174/531/571 128/532/571
f 112/533/572 196/534/573 125/256/574
f 190/225/575 196/534/576 112/533/577
f 203/236/578 209/237/579 178/359/580
f 204/528/581 113/535/581 128/527/581
f 196/534/582 199/536/582 125/256/582
f 57/537/583 110/538/584 77/539/585
f 83/213/586 247/540/586 84/212/586
f 47/454/587 200/456/587 114/507/587
f 79/541/588 38/542/588 166/543/588
f 211/514/589 177/77/589 180/544/589
f 125/256/590 199/536/590 205/522/590
f 81/545/591 168/416/592 165/70/593
f 196/534/594 198/546/594 199/536/594
f 205/522/595 202/547/595 204/548/595
f 81/549/596 165/478/596 119/337/596
f 199/536/597 202/547/597 205/522/597
f 206/550/598 113/535/598 204/548/598
f 61/551/599 182/552/599 187/553/599
f 193/227/600 196/534/600 190/225/600
f 199/536/601 198/546/601 202/547/601
f 204/548/602 202/547/602 206/550/602
f 114/507/603 23/423/603 191/554/603
f 193/227/604 198/546/604 196/534/604
f 187/553/605 182/552/606 172/555/607
f 220/31/608 241/556/608 238/280/608
f 171/424/609 167/425/609 214/557/609
f 236/439/610 252/470/610 250/472/610
f 198/546/611 201/558/611 202/547/611
f 186/450/612 192/559/612 167/425/612
f 79/517/613 211/514/613 194/560/613
f 193/227/614 201/558/614 198/546/614
f 201/558/615 206/550/615 202/547/615
f 241/561/616 253/562/616 252/17/616
f 80/563/617 142/564/617 62/140/617
f 207/78/618 211/514/618 209/237/618
f 80/563/619 62/140/620 269/139/621
f 192/226/622 186/565/622 193/227/622
f 78/378/623 79/517/623 166/566/623
f 190/500/624 212/479/624 192/567/624
f 201/558/625 210/568/625 206/550/625
f 152/448/626 169/222/627 188/382/628
f 165/478/629 80/563/629 269/139/629
f 155/133/630 148/135/630 46/569/630
f 170/570/631 201/558/632 193/227/633
f 177/77/634 211/514/634 207/78/634
f 208/571/635 210/568/636 201/558/637
f 210/572/638 208/406/638 189/409/638
f 258/573/639 83/574/640 261/575/641
f 246/576/642 220/31/643 229/577/644
f 213/501/645 215/30/645 212/479/645
f 218/578/646 232/579/646 231/580/646
f 232/579/647 247/581/648 242/582/649
f 243/16/650 241/561/650 252/17/650
f 118/422/651 268/583/651 160/584/651
f 249/585/652 247/581/652 258/573/652
f 83/586/653 265/587/653 262/588/653
f 247/581/654 83/574/654 258/573/654
f 242/582/655 249/585/655 246/576/655
f 261/575/656 83/574/656 262/589/656
f 223/590/657 232/579/657 218/578/657
f 227/194/658 223/591/658 111/233/658
f 83/574/659 130/520/660 267/519/661
f 263/521/662 130/520/662 260/471/662
f 216/592/663 221/593/663 213/501/663
f 218/578/664 225/594/664 216/592/664
f 248/595/665 257/596/666 220/31/667
f 227/194/668 244/275/669 223/591/669
f 11/24/670 94/597/670 3/370/670
f 265/598/671 83/574/671 267/519/671
f 111/41/672 223/599/672 218/56/672
f 94/597/673 11/24/673 131/23/673
f 254/600/674 253/601/674 241/556/674
f 177/300/675 259/602/676 123/129/677
f 244/275/678 232/603/678 223/591/678
f 263/521/679 260/471/679 252/470/679
f 10/604/680 3/370/680 94/597/680
f 244/275/681 247/198/681 232/603/681
f 248/595/682 220/31/682 246/576/682
f 216/592/683 213/501/683 190/500/683
f 60/345/684 157/127/684 123/129/684
f 218/605/685 216/592/686 190/500/687
f 177/300/688 175/606/688 259/602/688
f 259/602/689 60/345/689 123/129/689
f 104/169/690 10/607/691 94/167/692
f 148/608/693 149/609/693 121/610/694
f 175/606/695 161/611/695 259/602/695
f 118/422/696 160/612/696 77/539/696
f 153/613/697 260/471/697 130/520/697
f 120/614/698 61/615/699 122/616/700
f 247/581/701 249/585/701 242/582/701
f 214/617/702 148/608/703 121/610/704
f 161/611/705 264/376/705 259/602/705
f 139/340/706 259/602/707 264/376/708
f 139/340/709 60/345/709 259/602/709
f 257/596/710 256/618/711 220/31/712
f 221/593/713 229/577/713 220/31/713
f 192/567/714 214/617/714 167/619/714
f 251/620/715 46/621/715 148/608/715
f 139/340/716 43/84/717 60/345/718
f 212/479/719 214/617/719 192/567/719
f 237/622/720 148/608/721 214/617/721
f 219/623/722 237/622/722 214/617/722
f 255/624/723 254/600/724 241/556/725
f 219/623/726 214/617/727 212/479/727
f 251/620/728 148/608/728 237/622/729
f 239/625/730 237/626/730 219/627/730
f 212/628/731 222/629/731 219/630/731
f 251/620/732 250/472/732 46/621/732
f 250/472/733 266/631/733 46/621/733
f 217/632/734 222/629/734 212/628/734
f 219/623/735 233/633/735 239/634/735
f 139/340/736 42/85/736 43/84/736
f 224/635/737 222/636/737 217/32/737
f 233/633/738 219/623/739 226/637/740
f 218/578/741 231/580/741 225/594/741
f 164/341/742 42/85/742 139/340/742
f 220/31/743 255/624/744 241/556/744
f 242/582/745 246/576/746 229/577/747
f 228/83/748 224/635/749 217/32/748
f 234/638/750 233/633/750 226/637/750
f 213/501/751 221/593/751 220/31/751
f 242/639/752 229/640/752 230/641/752
f 215/642/753 213/643/753 220/644/753
f 260/471/754 266/631/754 250/472/754
f 227/194/755 26/205/756 244/275/757
f 256/618/758 255/624/758 220/31/758
f 236/439/759 233/633/759 234/638/759
f 230/645/760 229/577/760 221/593/760
f 236/439/761 245/646/761 233/633/761
